<?xml version="1.0" encoding="utf-8"?>
<svg viewBox="0 0 500 500" xmlns="http://www.w3.org/2000/svg" xmlns:bx="https://boxy-svg.com">
  <defs>
    <bx:grid x="0" y="0" width="25" height="25"/>
  </defs>
  <circle style="pointer-events: none;" cx="250" cy="250" r="250">
    <title>base</title>
  </circle>
  <circle style="pointer-events: none;" cx="250" cy="250" r="150">
    <title>help_inner</title>
  </circle>
  <path d="M 250 100.5 L 379.5 324.801 L 120.5 324.801 L 250 100.5 Z" style="fill: none; stroke: rgb(255, 255, 255); stroke-width: 10px; filter: none;" bx:shape="triangle 120.5 100.5 259 224.301 0.5 0 1@89e72c55"/>
  <g style="pointer-events: none;">
    <title>help_cut</title>
    <rect x="200" y="75" width="50" height="275" style=""/>
    <rect x="286.225" y="106.117" width="50" height="275.391" style="" transform="matrix(0.500026, 0.866011, -0.866011, 0.500026, 284.343445, -100.934937)"/>
    <rect x="294.565" y="58.414" width="50" height="279.536" style="" transform="matrix(-0.5, 0.866025, -0.866025, -0.5, 626.211304, 69.380043)"/>
  </g>
  <circle style="pointer-events: none; visibility: hidden;" cx="250" cy="250" r="71">
    <title>help_lambda</title>
  </circle>
  <path d="M 234.065 285.925 L 222.745 285.925 L 244.695 236.435 L 242.605 230.535 C 241.459 227.475 240.165 225.335 238.725 224.115 C 237.292 222.895 235.322 222.285 232.815 222.285 C 231.082 222.285 229.395 222.468 227.755 222.835 L 227.755 213.935 C 229.862 213.408 232.182 213.145 234.715 213.145 C 237.902 213.145 240.585 213.648 242.765 214.655 C 244.945 215.655 246.815 217.225 248.375 219.365 C 249.942 221.498 251.559 224.835 253.225 229.375 L 268.165 270.805 C 269.059 273.218 269.969 274.995 270.895 276.135 C 271.829 277.282 272.942 277.855 274.235 277.855 C 274.795 277.855 275.802 277.698 277.255 277.385 L 277.255 285.645 C 276.449 286.018 275.412 286.312 274.145 286.525 C 272.879 286.745 271.705 286.855 270.625 286.855 C 267.839 286.855 265.595 286.182 263.895 284.835 C 262.195 283.488 260.772 281.192 259.625 277.945 C 255.205 265.638 252.485 257.938 251.465 254.845 C 250.445 251.752 249.795 249.542 249.515 248.215 L 249.235 248.215 C 248.155 252.388 246.672 256.685 244.785 261.105 L 234.065 285.925 Z" style="fill: rgb(255, 255, 255); white-space: pre; filter: none;">
    <title>lambda</title>
  </path>
  <ellipse style="fill: none; stroke: rgb(255, 255, 255); paint-order: fill; stroke-width: 10px;" cx="250" cy="250" rx="75" ry="75"/>
</svg>